<svg width="16" height="16" viewBox="0 0 16 16" fill="none" xmlns="http://www.w3.org/2000/svg">
<g clip-path="url(#clip0_280_38)">
<path d="M16 14.8571V9.53674e-07V14.8571Z" fill="#BFBFBF"/>
<path d="M16 14.8571V4.76837e-07" stroke="#BFBFBF" stroke-width="4" stroke-linecap="round" stroke-linejoin="round"/>
<path d="M0.594395 2.6744C0.593833 2.4688 0.648741 2.26686 0.753331 2.08983C0.857921 1.9128 1.00832 1.76731 1.18868 1.66869C1.36241 1.56834 1.5595 1.51554 1.7601 1.51554C1.96072 1.51554 2.1578 1.56834 2.33153 1.66869L10.5487 7.04007C10.7091 7.14367 10.841 7.28582 10.9323 7.45352C11.0236 7.62121 11.0714 7.80912 11.0714 8.00007C11.0714 8.19102 11.0236 8.37893 10.9323 8.54662C10.841 8.71432 10.7091 8.85646 10.5487 8.96007L2.30868 14.2858C2.13494 14.3861 1.93786 14.4389 1.73725 14.4389C1.53664 14.4389 1.33956 14.3861 1.16582 14.2858C0.985464 14.1871 0.835064 14.0416 0.730473 13.8646C0.625884 13.6876 0.570976 13.4857 0.571537 13.2801L0.594395 2.6744Z" fill="#BFBFBF" stroke="#BFBFBF" stroke-linecap="round" stroke-linejoin="round"/>
</g>
<defs>
<clipPath id="clip0_280_38">
<rect width="16" height="16" fill="white" transform="matrix(1 0 0 -1 0 16)"/>
</clipPath>
</defs>
</svg>
