<svg width="26" height="26" viewBox="0 0 26 26" fill="none" xmlns="http://www.w3.org/2000/svg">
<path d="M2.66675 22.8984C2.67342 23.2854 2.78601 23.6632 2.99229 23.9906C3.19856 24.318 3.49063 24.5826 3.83675 24.7555C4.18238 24.9509 4.57262 25.0536 4.96961 25.0536C5.36659 25.0536 5.75685 24.9509 6.10246 24.7555L22.1667 14.8199C22.5162 14.6515 22.8112 14.3879 23.0177 14.0593C23.224 13.7308 23.3334 13.3507 23.3334 12.9627C23.3334 12.5748 23.224 12.1947 23.0177 11.8661C22.8112 11.5376 22.5162 11.274 22.1667 11.1056L6.10246 1.24417C5.75685 1.04888 5.36659 0.946251 4.96961 0.946251C4.57262 0.946251 4.18238 1.04888 3.83675 1.24417C3.49063 1.41723 3.19856 1.68185 2.99229 2.00928C2.78601 2.33669 2.67342 2.7144 2.66675 3.10131V22.8984Z" fill="#1F1F1F" stroke="#1F1F1F" stroke-linecap="round" stroke-linejoin="round"/>
</svg>
