<svg width="16" height="16" viewBox="0 0 16 16" fill="none" xmlns="http://www.w3.org/2000/svg">
<g clip-path="url(#clip0_280_48)">
<path d="M0.571533 15.4286V0.57143V15.4286Z" fill="#BFBFBF"/>
<path d="M0.571533 15.4286V0.57143" stroke="#BFBFBF" stroke-width="3" stroke-linecap="round" stroke-linejoin="round"/>
<path d="M15.4057 2.6744C15.4063 2.4688 15.3514 2.26686 15.2469 2.08983C15.1422 1.9128 14.9918 1.76731 14.8114 1.66869C14.6377 1.56834 14.4407 1.51554 14.24 1.51554C14.0394 1.51554 13.8424 1.56834 13.6686 1.66869L5.45148 7.04007C5.29108 7.14367 5.15919 7.28582 5.06788 7.45352C4.97656 7.62121 4.92871 7.80912 4.92871 8.00007C4.92871 8.19102 4.97656 8.37893 5.06788 8.54662C5.15919 8.71432 5.29108 8.85646 5.45148 8.96007L13.6914 14.2858C13.8653 14.3861 14.0623 14.4389 14.2629 14.4389C14.4635 14.4389 14.6606 14.3861 14.8343 14.2858C15.0147 14.1871 15.165 14.0416 15.2697 13.8646C15.3743 13.6876 15.4291 13.4857 15.4286 13.2801L15.4057 2.6744Z" fill="#BFBFBF" stroke="#BFBFBF" stroke-linecap="round" stroke-linejoin="round"/>
</g>
<defs>
<clipPath id="clip0_280_48">
<rect width="16" height="16" fill="white" transform="matrix(1 0 0 -1 0 16)"/>
</clipPath>
</defs>
</svg>
