<svg width="13" height="13" viewBox="0 0 13 13" fill="none" xmlns="http://www.w3.org/2000/svg">
<path d="M10.5 8.5L12.5 10.5M12.5 10.5L10.5 12.5M12.5 10.5H10.8793C10.2531 10.5 9.94004 10.5 9.65586 10.4137C9.40428 10.3373 9.17024 10.212 8.96712 10.0451C8.73768 9.85651 8.56401 9.59602 8.21669 9.07504L8.05556 8.83333M10.5 0.5L12.5 2.5M12.5 2.5L10.5 4.5M12.5 2.5H10.8793C10.2531 2.5 9.94004 2.5 9.65586 2.5863C9.40428 2.6627 9.17024 2.78796 8.96712 2.95491C8.73768 3.14349 8.56401 3.40398 8.21669 3.92496L4.78331 9.07504C4.43599 9.59602 4.26232 9.85651 4.03288 10.0451C3.82976 10.212 3.59572 10.3373 3.34414 10.4137C3.05996 10.5 2.74689 10.5 2.12075 10.5H0.5M0.5 2.5H2.12075C2.74689 2.5 3.05996 2.5 3.34414 2.5863C3.59572 2.6627 3.82976 2.78796 4.03288 2.95491C4.26232 3.14349 4.43599 3.40398 4.78331 3.92496L4.94444 4.16667" stroke="#BFBFBF" stroke-linecap="round" stroke-linejoin="round"/>
</svg>
