<svg width="18" height="18" viewBox="0 0 18 18" fill="none" xmlns="http://www.w3.org/2000/svg">
<path d="M1.84619 15.8527C1.85081 16.1207 1.92876 16.3822 2.07156 16.6089C2.21437 16.8355 2.41657 17.0187 2.65619 17.1384C2.89548 17.2737 3.16564 17.3448 3.44048 17.3448C3.71531 17.3448 3.98549 17.2737 4.22476 17.1384L15.3462 10.2599C15.5882 10.1433 15.7923 9.96084 15.9353 9.7334C16.0781 9.50595 16.1539 9.24281 16.1539 8.97421C16.1539 8.70561 16.0781 8.44246 15.9353 8.21502C15.7923 7.98758 15.5882 7.80507 15.3462 7.68849L4.22476 0.861348C3.98549 0.726147 3.71531 0.655098 3.44048 0.655098C3.16564 0.655098 2.89548 0.726147 2.65619 0.861348C2.41657 0.981163 2.21437 1.16436 2.07156 1.39104C1.92876 1.61771 1.85081 1.8792 1.84619 2.14707V15.8527Z" fill="white" stroke="white" stroke-linecap="round" stroke-linejoin="round"/>
</svg>
