<svg width="18" height="18" viewBox="0 0 18 18" fill="none" xmlns="http://www.w3.org/2000/svg">
<g clip-path="url(#clip0_405_8)">
<path d="M16.0714 17.3571H12.8571C12.1471 17.3571 11.5714 16.7815 11.5714 16.0714V1.92857C11.5714 1.21847 12.1471 0.642858 12.8571 0.642858H16.0714C16.7815 0.642858 17.3571 1.21847 17.3571 1.92857V16.0714C17.3571 16.7815 16.7815 17.3571 16.0714 17.3571Z" fill="white" stroke="white" stroke-linecap="round" stroke-linejoin="round"/>
<path d="M5.14282 17.3571H1.92854C1.21846 17.3571 0.642822 16.7815 0.642822 16.0714V1.92857C0.642822 1.21847 1.21846 0.642858 1.92854 0.642858H5.14282C5.8529 0.642858 6.42854 1.21847 6.42854 1.92857V16.0714C6.42854 16.7815 5.8529 17.3571 5.14282 17.3571Z" fill="white" stroke="white" stroke-linecap="round" stroke-linejoin="round"/>
</g>
<defs>
<clipPath id="clip0_405_8">
<rect width="18" height="18" fill="white" transform="matrix(1 0 0 -1 0 18)"/>
</clipPath>
</defs>
</svg>
