<svg width="16" height="16" viewBox="0 0 16 16" fill="none" xmlns="http://www.w3.org/2000/svg">
<path d="M14.2803 12C15.0114 10.7925 15.406 9.41143 15.4231 8C15.406 6.58857 15.0114 5.20745 14.2803 4" stroke="#BFBFBF" stroke-linecap="round" stroke-linejoin="round"/>
<path d="M12 6.28572C12.3973 6.76605 12.601 7.37735 12.5714 8C12.601 8.62265 12.3973 9.23396 12 9.71429" stroke="#BFBFBF" stroke-linecap="round" stroke-linejoin="round"/>
<path d="M3.42868 5.71431H1.71439C1.09191 5.71431 0.571533 6.23469 0.571533 6.85717V9.14288C0.571533 9.76535 1.09191 10.2857 1.71439 10.2857H3.42868L7.89725 13.4971C8.63473 14.0074 9.69444 13.4702 9.71439 12.5714V3.42857C9.73581 2.52933 8.73965 1.99117 8.0001 2.50286L3.42868 5.71431Z" stroke="#BFBFBF" stroke-linecap="round" stroke-linejoin="round"/>
</svg>
